<svg xmlns="http://www.w3.org/2000/svg" viewBox="0 0 184.84 184.84"><defs><style>.cls-1{fill:#42b983;}</style></defs><title>facebook</title><g id="Layer_2" data-name="Layer 2"><g id="Layer_1-2" data-name="Layer 1"><path class="cls-1" d="M97.76,184.84H9.34A9.34,9.34,0,0,1,0,175.5V9.34A9.34,9.34,0,0,1,9.34,0H175.5a9.34,9.34,0,0,1,9.34,9.34V175.5a9.34,9.34,0,0,1-9.34,9.34H128.16V113.56h23.77c1.28-10.06,2.51-19.69,3.8-29.83-8.56,0-16.21-.1-23.84,0-2.8.06-3.93-.77-3.82-3.7.18-5.19,0-10.4.08-15.6.12-6.64,3.58-10.07,10.17-10.15,4.79-.06,9.59-.11,14.37,0,3.29.09,4.11-1.31,3.34-6.08A44.29,44.29,0,0,1,156,33.64c.93-5.4,0-6.73-3.51-6.66-7.25.13-14.51-.09-21.76.07-15.67.37-28.57,10.51-31.78,25.8-1.26,6.07-.71,12.52-.89,18.8-.11,3.92,0,7.84,0,12.09-7.25,0-13.94.07-20.62,0A3.52,3.52,0,0,0,73.8,87.3c.11,7.67.14,15.35,0,23-.05,2.84,1.19,3.46,3.71,3.39,5.19-.13,10.42.24,15.59-.12,4.16-.29,5.11,1.36,5,5.16-.24,7.66,0,15.33-.07,23Q97.91,163.29,97.76,184.84Z"/></g></g></svg>