<svg xmlns="http://www.w3.org/2000/svg" viewBox="0 0 36.64 36.58"><defs><style>.cls-1{fill:#42b983;}</style></defs><title>facebook</title><g id="Layer_2" data-name="Layer 2"><g id="Layer_1-2" data-name="Layer 1"><path class="cls-1" d="M28,0H8.66A9.7,9.7,0,0,0,0,9.65V26.87a9.71,9.71,0,0,0,9.71,9.71h8.61V22.8H14.14c-.21,0-.31,0-.31-.29,0-1.86,0-3.72,0-5.59,0-.06,0-.13,0-.22h4.46v-.37A26.82,26.82,0,0,1,18.45,13,7.71,7.71,0,0,1,21.7,7.65a6.1,6.1,0,0,1,3.62-1.14h4.79V12.6l-.38,0H25.52a1.3,1.3,0,0,0-1.45,1.3c-.06.91,0,1.82,0,2.76h6.06c0,.14,0,.25,0,.35,0,1.81,0,3.63,0,5.44,0,.28-.09.34-.35.34H24V36.32a2.28,2.28,0,0,0,0,.26h2.88a9.71,9.71,0,0,0,9.71-9.71V9.65A9.7,9.7,0,0,0,28,0Z"/></g></g></svg>