<svg xmlns="http://www.w3.org/2000/svg" viewBox="0 0 36.64 36.64"><defs><style>.cls-1{fill:#42b983;}.cls-2{fill:#fff;}</style></defs><title>tweet</title><g id="Layer_2" data-name="Layer 2"><g id="Layer_1-2" data-name="Layer 1"><rect class="cls-1" width="36.64" height="36.64" rx="9.71"/><path class="cls-2" d="M13.11,25c-3-.6-5.1-2.21-5.37-4.17H10l.09-.14a6.11,6.11,0,0,1-4.62-5.8L8,15.59l.09-.17a5.93,5.93,0,0,1-2.42-4A5.74,5.74,0,0,1,6.38,7.6a17,17,0,0,0,12.11,6.2,17.19,17.19,0,0,1,.31-3A5.92,5.92,0,0,1,28.49,8a.74.74,0,0,0,.85.22l3.14-1.13c-.18.89-.57,1.42-2.23,3.11l3-.78.12.1c-.76.77-1.47,1.59-2.29,2.29a1.56,1.56,0,0,0-.61,1.29c-.23,6.31-2.8,11.41-8.31,14.63s-11.47,3.12-17.2,0a1.64,1.64,0,0,1-.22-.14s0-.07,0,0c1.4-.2,2.88-.33,4.33-.64A10.08,10.08,0,0,0,13.11,25Z"/></g></g></svg>