<svg xmlns="http://www.w3.org/2000/svg" viewBox="0 0 221.62 183.28"><defs><style>.cls-1{fill:#42b983;}</style></defs><title>twitter</title><g id="Layer_2" data-name="Layer 2"><g id="Layer_1-2" data-name="Layer 1"><g id="pnkhCk"><path class="cls-1" d="M65.09,143.39c-23.45-4.66-39.41-17.07-41.54-32.23H41.37l.64-1.11C20,102.89,7.9,88.15,6.29,65.18l19.12,5.33.7-1.26c-10.37-8-17-18.23-18.72-31.19C6.08,27.94,7.46,18.16,13,8.7c25,29.16,56.33,45.35,93.7,48,.75-8.21.28-16.21,2.36-23.5,9.34-32.8,49.75-44,75-21.09,2.11,1.91,3.92,2.68,6.58,1.71,8.17-3,16.37-5.9,24.29-8.74C213.53,11.9,210.53,16,197.7,29.1l23-6.1.88.82c-5.85,5.95-11.36,12.28-17.67,17.7-3.38,2.91-4.53,5.61-4.69,10-1.79,48.82-21.72,88.29-64.27,113.17-43.65,25.52-88.73,24.14-133.1,0a13.28,13.28,0,0,1-1.68-1.07c-.24-.18-.37-.52.15.27,10.83-1.54,22.28-2.6,33.47-4.94C45.17,156.53,55.22,150.86,65.09,143.39Z"/></g></g></g></svg>